# ProBuilder 5.0.6
# https://unity3d.com/unity/features/worldbuilding/probuilder
# 28.10.2022 22:02:18

mtllib ./Arch.mtl
o Arch

g Arch
v 1.982092 0.2500001 0.8629799
v 1.482732 0.25 0.2783046
v 1.982092 -0.2499999 0.8629799
v 1.482732 -0.2499999 0.2783046
v 1.129179 0.2500001 0.6318579
v 1.577584 0.2500001 1.156873
v 1.129179 -0.2499999 0.6318579
v 1.577584 -0.2499999 1.156873
v 0.8980572 0.2499999 -0.221055
v 0.8980572 -0.25 -0.221055
v 0.6041646 0.25 0.1834536
v 0.6041646 -0.2499999 0.1834536
v 0.2424629 0.2499999 -0.6228042
v 0.2424629 -0.25 -0.6228042
v 0.01546752 0.2499999 -0.1773009
v 0.01546752 -0.25 -0.1773009
v -0.4679077 0.2499999 -0.9170489
v -0.4679077 -0.25 -0.9170489
v -0.6224161 0.2499999 -0.4415212
v -0.6224161 -0.25 -0.4415207
v -1.215562 0.2499999 -1.096545
v -1.215562 -0.25 -1.096545
v -1.293779 0.2499999 -0.6027007
v -1.293779 -0.25 -0.6027007
v -1.982091 0.2499999 -1.156872
v -1.982091 -0.25 -1.156872
v -1.982091 0.2499999 -0.6568723
v -1.982091 -0.25 -0.6568723
v 1.578714 0.2477904 1.156312
v 1.981112 0.2477904 0.8611999
v 1.578714 -0.2477902 1.156312
v 1.981112 -0.2477902 0.8611999
v -1.981112 0.2499999 -1.155547
v -1.98114 0.2499999 -0.6572719
v -1.981112 -0.25 -1.155547
v -1.98114 -0.25 -0.6572719

vt -1.943481 0.2500001
vt -1.174582 0.25
vt -1.943481 -0.2499999
vt -1.174582 -0.2499999
vt 1.213812 0.2500001
vt 1.904252 0.2500001
vt 1.213812 -0.2499999
vt 1.904252 -0.2499999
vt -1.308223 0.25
vt -0.5393242 0.2499999
vt -1.308223 -0.2499999
vt -0.5393242 -0.25
vt 0.578554 0.25
vt 1.268993 0.2500001
vt 0.578554 -0.2499999
vt 1.268993 -0.2499999
vt -0.6502185 0.2499999
vt 0.118681 0.2499999
vt -0.6502185 -0.25
vt 0.118681 -0.25
vt -0.07945134 0.2499999
vt 0.6109891 0.25
vt -0.07945134 -0.25
vt 0.6109891 -0.2499999
vt 0.01433007 0.2499999
vt 0.7832295 0.2499999
vt 0.01433007 -0.25
vt 0.7832295 -0.25
vt -0.7440004 0.2500001
vt -0.05356004 0.2500001
vt -0.7440002 -0.2499998
vt -0.05356004 -0.2499998
vt 0.66906 0.2499999
vt 1.437959 0.2499999
vt 0.66906 -0.25
vt 1.437959 -0.25
vt -1.39873 0.2499999
vt -0.7082896 0.2499999
vt -1.39873 -0.25
vt -0.7082895 -0.25
vt 1.29785 0.2499999
vt 2.066749 0.2499999
vt 1.29785 -0.25
vt 2.066749 -0.25
vt -2.027519 0.2499999
vt -1.337079 0.2499999
vt -2.027519 -0.25
vt -1.337079 -0.25
vt 1.982092 0.8629799
vt 1.482732 0.2783045
vt 1.577584 1.156873
vt 1.129179 0.6318579
vt -1.482732 0.2783046
vt -1.982092 0.8629799
vt -1.129179 0.6318579
vt -1.577584 1.156873
vt 0.8980572 -0.221055
vt 0.6041646 0.1834535
vt -0.8980572 -0.221055
vt -0.6041646 0.1834536
vt 0.2424629 -0.6228042
vt 0.01546752 -0.1773009
vt -0.2424629 -0.6228042
vt -0.01546752 -0.1773009
vt -0.4679077 -0.9170489
vt -0.6224161 -0.4415207
vt 0.4679077 -0.9170489
vt 0.6224161 -0.4415212
vt -1.215562 -1.096545
vt -1.293779 -0.6027007
vt 1.215562 -1.096545
vt 1.293779 -0.6027007
vt -1.982091 -1.156872
vt -1.982091 -0.6568723
vt 1.982091 -1.156872
vt 1.982091 -0.6568723
vt 0.58922 0.2477904
vt 1.088234 0.2477904
vt 0.58922 -0.2477902
vt 1.088234 -0.2477902
vt -1.155433 0.2499999
vt -0.6571581 0.2499999
vt -1.155433 -0.25
vt -0.6571581 -0.25

vn 0.7604058 0 -0.6494482
vn 0.7071068 0 -0.7071068
vn -0.7071067 0 0.7071068
vn -0.760406 0 0.649448
vn 0.5877855 0 -0.8090168
vn -0.5877854 0 0.8090169
vn 0.4539905 0 -0.8910065
vn -0.4539907 2.209512E-07 0.8910064
vn 0.3090167 0 -0.9510567
vn -0.3090169 6.744503E-07 0.9510565
vn 0.1564346 0 -0.9876883
vn -0.1564343 0 0.9876884
vn 0.07845959 0 -0.9969173
vn -0.07845942 0 0.9969173
vn -2.2611E-08 -1 7.028406E-08
vn 3.594372E-08 1 -1.326437E-07
vn 0.5913904 0 0.8063854
vn -1 0 -5.741852E-05

usemtl ProBuilderDefault
f 3/3/1 4/4/2 2/2/2 1/1/1
f 7/7/3 8/8/4 6/6/4 5/5/3
f 4/11/2 10/12/5 9/10/5 2/9/2
f 12/15/6 7/16/3 5/14/3 11/13/6
f 10/19/5 14/20/7 13/18/7 9/17/5
f 16/23/8 12/24/6 11/22/6 15/21/8
f 14/27/7 18/28/9 17/26/9 13/25/7
f 20/31/10 16/32/8 15/30/8 19/29/10
f 18/35/9 22/36/11 21/34/11 17/33/9
f 24/39/12 20/40/10 19/38/10 23/37/12
f 22/43/11 26/44/13 25/42/13 21/41/11
f 28/47/14 24/48/12 23/46/12 27/45/14
f 8/51/15 7/52/15 4/50/15 3/49/15
f 5/55/16 6/56/16 1/54/16 2/53/16
f 7/52/15 12/58/15 10/57/15 4/50/15
f 11/60/16 5/55/16 2/53/16 9/59/16
f 12/58/15 16/62/15 14/61/15 10/57/15
f 15/64/16 11/60/16 9/59/16 13/63/16
f 16/62/15 20/66/15 18/65/15 14/61/15
f 19/68/16 15/64/16 13/63/16 17/67/16
f 20/66/15 24/70/15 22/69/15 18/65/15
f 23/72/16 19/68/16 17/67/16 21/71/16
f 24/70/15 28/74/15 26/73/15 22/69/15
f 27/76/16 23/72/16 21/71/16 25/75/16
f 31/79/17 32/80/17 30/78/17 29/77/17
f 35/83/18 36/84/18 34/82/18 33/81/18

